<?xml version="1.0" encoding="utf-8"?>
<!-- Generator: Adobe Illustrator 21.1.0, SVG Export Plug-In . SVG Version: 6.00 Build 0)  -->
<svg version="1.1" id="Layer_1" xmlns="http://www.w3.org/2000/svg" xmlns:xlink="http://www.w3.org/1999/xlink" x="0px" y="0px"
	 viewBox="0 0 496 499.1" style="enable-background:new 0 0 496 499.1;" xml:space="preserve">
<style type="text/css">
	.st0{fill:#221E20;}
	.st1{fill:url(#SVGID_1_);}
	.st2{fill:url(#SVGID_2_);}
	.st3{fill:#251F17;}
	.st4{fill:url(#SVGID_3_);}
	.st5{fill:url(#SVGID_4_);}
	.st6{fill:url(#SVGID_5_);}
</style>
<g>
	<path class="st0" d="M14.5,499.1c-8,0-14.5-6.5-14.5-14.5l0,0V14.5C0,6.5,6.5,0,14.5,0l0,0h467.1c8,0,14.5,6.5,14.5,14.5l0,0v470.2
		c0,8-6.5,14.5-14.5,14.5l0,0H14.5L14.5,499.1z M2.7,14.5v470.2c0,6.5,5.3,11.8,11.8,11.8l0,0h467.1c6.5,0,11.8-5.3,11.8-11.8l0,0
		V14.5c0-6.5-5.3-11.8-11.8-11.8l0,0H14.5C7.9,2.7,2.7,7.9,2.7,14.5L2.7,14.5z"/>
	<path class="st0" d="M14.5,492.9c-4.6,0-8.2-3.7-8.2-8.2l0,0V14.5c0-4.6,3.7-8.2,8.2-8.2l0,0h467.1c4.5,0,8.2,3.7,8.2,8.2l0,0
		v470.2c0,4.6-3.7,8.2-8.2,8.2l0,0H14.5L14.5,492.9z M7.2,484.6c0,4.1,3.3,7.3,7.3,7.3l0,0h467.1c4,0,7.3-3.3,7.3-7.3l0,0V14.5
		c0-4-3.3-7.3-7.3-7.3l0,0H14.5c-4,0-7.3,3.3-7.3,7.3l0,0V484.6L7.2,484.6z"/>
	<g>
		<linearGradient id="SVGID_1_" gradientUnits="userSpaceOnUse" x1="247.9994" y1="497.7617" x2="247.9994" y2="1.3367">
			<stop  offset="0" style="stop-color:#404040"/>
			<stop  offset="1" style="stop-color:#797979"/>
		</linearGradient>
		<path class="st1" d="M14.5,1.3C7.2,1.3,1.3,7.2,1.3,14.5v470.2c0,7.3,5.9,13.1,13.1,13.1h467.1c7.2,0,13.1-5.9,13.1-13.1V14.5
			c0-7.3-5.9-13.1-13.1-13.1"/>
	</g>
	
		<linearGradient id="SVGID_2_" gradientUnits="userSpaceOnUse" x1="-494.4569" y1="439.2558" x2="-481.3361" y2="439.2558" gradientTransform="matrix(-0.7071 0.7071 -0.7071 -0.7071 432.2754 684.9245)">
		<stop  offset="0" style="stop-color:#2F2F30"/>
		<stop  offset="1" style="stop-color:#747474"/>
	</linearGradient>
	<path class="st2" d="M462,34c-2.6-2.6-2.6-6.7,0-9.3c2.6-2.6,6.7-2.6,9.3,0c2.6,2.6,2.6,6.7,0,9.3C468.7,36.5,464.6,36.5,462,34z"
		/>
	<polygon class="st3" points="471.9,29.3 467.6,30.3 466.7,34.6 465.7,30.3 461.5,29.3 465.7,28.4 466.7,24.1 467.6,28.4 	"/>
	<linearGradient id="SVGID_3_" gradientUnits="userSpaceOnUse" x1="24.4093" y1="468.1331" x2="37.5308" y2="468.1331">
		<stop  offset="0" style="stop-color:#2F2F30"/>
		<stop  offset="1" style="stop-color:#747474"/>
	</linearGradient>
	<circle class="st4" cx="31" cy="468.1" r="6.6"/>
	<polygon class="st3" points="27.3,464.4 31,466.8 34.7,464.4 32.3,468.1 34.7,471.8 31,469.4 27.3,471.8 29.7,468.1 	"/>
	<linearGradient id="SVGID_4_" gradientUnits="userSpaceOnUse" x1="460.1076" y1="469.7738" x2="473.2291" y2="469.7738">
		<stop  offset="0" style="stop-color:#2F2F30"/>
		<stop  offset="1" style="stop-color:#747474"/>
	</linearGradient>
	<circle class="st5" cx="466.7" cy="469.8" r="6.6"/>
	<polygon class="st3" points="463,466.1 466.7,468.5 470.4,466.1 468,469.8 470.4,473.5 466.7,471.1 463,473.5 465.4,469.8 	"/>
	<linearGradient id="SVGID_5_" gradientUnits="userSpaceOnUse" x1="22.7684" y1="29.3318" x2="35.8902" y2="29.3318">
		<stop  offset="0" style="stop-color:#2F2F30"/>
		<stop  offset="1" style="stop-color:#747474"/>
	</linearGradient>
	<ellipse class="st6" cx="29.3" cy="29.3" rx="6.6" ry="6.6"/>
	<polygon class="st3" points="25.6,25.6 29.3,28 33,25.6 30.6,29.3 33,33 29.3,30.6 25.6,33 28,29.3 	"/>
</g>
</svg>
