<?xml version="1.0" encoding="utf-8"?>
<!-- Generator: Adobe Illustrator 21.1.0, SVG Export Plug-In . SVG Version: 6.00 Build 0)  -->
<svg version="1.1" xmlns="http://www.w3.org/2000/svg" xmlns:xlink="http://www.w3.org/1999/xlink" x="0px" y="0px"
	 viewBox="0 0 47.9 47.9" style="enable-background:new 0 0 47.9 47.9;" xml:space="preserve">
<style type="text/css">
	.st0{fill:#FFFFFF;}
	.st1{fill:#011F6B;}
</style>
<g id="Layer_2">
	<circle class="st0" cx="24" cy="24" r="24"/>
</g>
<g id="Layer_3_1_">
	<path class="st1" d="M38.3,26.3H9.6c-1.3,0-2.3-1-2.3-2.3v0c0-1.3,1-2.3,2.3-2.3h28.7c1.3,0,2.3,1,2.3,2.3v0
		C40.6,25.2,39.6,26.3,38.3,26.3z"/>
</g>
<g id="Layer_3_copy">
	<path class="st1" d="M26.3,9.6v28.7c0,1.3-1,2.3-2.3,2.3h0c-1.3,0-2.3-1-2.3-2.3V9.6c0-1.3,1-2.3,2.3-2.3h0
		C25.2,7.3,26.3,8.3,26.3,9.6z"/>
</g>
</svg>
