<?xml version="1.0" encoding="utf-8"?>
<!-- Generator: Adobe Illustrator 21.1.0, SVG Export Plug-In . SVG Version: 6.00 Build 0)  -->
<svg version="1.1" xmlns="http://www.w3.org/2000/svg" xmlns:xlink="http://www.w3.org/1999/xlink" x="0px" y="0px"
	 viewBox="0 0 111 69.4" style="enable-background:new 0 0 111 69.4;" xml:space="preserve">
<style type="text/css">
	.st0{display:none;}
	.st1{display:inline;}
	.st2{fill:#FFFFFF;}
	.st3{opacity:0.75;}
</style>
<g id="Layer_1_copy" class="st0">
	<g id="Layer_1_3_" class="st1">
	</g>
	<g id="Layer_2_1_" class="st1">
		<path class="st2" d="M83,0H36v60.4h15v15h60V28C111,12.5,98.5,0,83,0z"/>
	</g>
</g>
<g id="Layer_1" class="st0">
	<g id="Layer_1_1_" class="st1">
	</g>
	<g id="Layer_2" class="st1">
		<path d="M83,0H36v60.4h15v15h60V28C111,12.5,98.5,0,83,0z"/>
	</g>
</g>
<g id="Layer_1_copy_2" class="st3">
	<g id="Layer_1_4_">
	</g>
	<g id="Layer_2_2_">
		<path d="M83,0H0v60.4h49.3c1,0,1.7,0.8,1.7,1.7v7.3h60V28C111,12.5,98.5,0,83,0z"/>
	</g>
</g>
<g id="Layer_1_copy_3" class="st0">
	<g id="Layer_1_2_" class="st1">
	</g>
</g>
<g id="Layer_5">
	<g>
		<path d="M111,28c0-15.5-12.5-28-28-28H0v4h83c13.2,0,24,10.8,24,24v41.4h4V28z"/>
		<path d="M55,67.6v-5.4c0-3.2-2.6-5.7-5.7-5.7H0v4h49.3c1,0,1.7,0.8,1.7,1.7v7.3h4V67.6z"/>
	</g>
</g>
<g id="Layer_6">
</g>
<g id="Layer_6_copy" class="st0">
	<rect x="45" y="4" class="st1" width="4.2" height="52.4"/>
</g>
<g id="Layer_6_copy_5" class="st0">
	<rect x="33" y="4" class="st1" width="4.2" height="52.4"/>
</g>
<g id="Layer_6_copy_2" class="st0">
	<rect x="22" y="4" class="st1" width="4.2" height="52.4"/>
</g>
<g id="Layer_6_copy_4" class="st0">
	<rect x="11" y="4" class="st1" width="4.2" height="52.4"/>
</g>
<g id="Layer_6_copy_3">
</g>
</svg>
