<?xml version="1.0" encoding="utf-8"?>
<!-- Generator: Adobe Illustrator 21.1.0, SVG Export Plug-In . SVG Version: 6.00 Build 0)  -->
<svg version="1.1" id="Layer_1" xmlns="http://www.w3.org/2000/svg" xmlns:xlink="http://www.w3.org/1999/xlink" x="0px" y="0px"
	 viewBox="0 0 177.1 176.6" style="enable-background:new 0 0 177.1 176.6;" xml:space="preserve">
<g>
	<path d="M158.5,95.2c0-0.2,0-0.4,0-0.6l-0.1-0.1c0.2-2.2,0.3-4.3,0.3-6.5h-0.1c0-2-0.1-3.9-0.3-5.9l18.8-12.6c0,0,0,0,0-0.1
		c-0.3-1.4-0.7-2.9-1.1-4.3c-0.4-1.4-0.8-2.8-1.3-4.2c-0.5-1.4-1-2.8-1.5-4.2c-0.4-1-0.8-2-1.3-3l-22.5,0.6
		c-0.2-0.3-0.3-0.5-0.5-0.7h-0.1c-1.1-1.8-2.3-3.6-3.5-5.2c-1.2-1.7-2.6-3.3-3.9-4.8l7.6-21c-0.7-0.6-1.3-1.2-2-1.7
		c-1.1-0.9-2.3-1.8-3.4-2.7c-1.2-0.9-2.4-1.7-3.6-2.5c-1.2-0.8-2.4-1.6-3.7-2.3c-0.4-0.2-0.7-0.4-1.1-0.6l-17.8,13.4
		c-0.3-0.1-0.5-0.2-0.8-0.3l0,0c-2-0.8-4-1.6-6-2.2s-4.1-1.2-6.2-1.7l0-0.1c0,0,0,0,0,0L97.8,0.5c-0.9-0.1-1.8-0.2-2.7-0.3
		c-1.5-0.1-2.9-0.2-4.4-0.2c-1,0-2,0-2.9,0c-0.5,0-1,0-1.5,0c-1.5,0-2.9,0.1-4.4,0.2c-0.5,0-0.9,0.1-1.4,0.1l-6.4,21.2
		c-4.6,1-9.2,2.4-13.5,4.2l-18-13.5c-0.6,0.3-1.2,0.7-1.8,1c-1.2,0.8-2.5,1.5-3.7,2.3c-1.2,0.8-2.4,1.6-3.6,2.5
		c-1.2,0.9-2.3,1.8-3.4,2.7c-0.4,0.4-0.9,0.8-1.3,1.1l0,0l7.5,20.7c0,0,0,0,0,0.1l0.1,0.2c-3.2,3.4-6,7.2-8.5,11.4L5.2,53.7
		c-0.4,1-0.9,2-1.3,3.1c-0.6,1.4-1.1,2.8-1.5,4.2c-0.5,1.4-0.9,2.8-1.3,4.3c-0.4,1.3-0.7,2.5-1,3.8l18.5,12.4c0,0.2,0,0.4,0,0.6
		l0.1,0.1c-0.2,2.2-0.3,4.3-0.3,6.5h0.1c0,2,0.1,3.9,0.3,5.9L0,107.1c0,0,0,0,0,0.1c0.3,1.4,0.7,2.9,1.1,4.3s0.8,2.8,1.3,4.2
		c0.5,1.4,1,2.8,1.5,4.2c0.4,1,0.8,2,1.3,3l22.5-0.6c0.2,0.3,0.3,0.5,0.5,0.7h0.1c1.1,1.8,2.3,3.6,3.5,5.2c1.2,1.7,2.6,3.3,3.9,4.8
		l-7.6,21c0.7,0.6,1.3,1.2,2,1.7c1.1,0.9,2.3,1.8,3.4,2.7c1.2,0.9,2.4,1.7,3.6,2.5c1.2,0.8,2.4,1.6,3.7,2.3c0.4,0.2,0.7,0.4,1.1,0.6
		l17.8-13.4c0.3,0.1,0.5,0.2,0.8,0.3l0,0c2,0.8,4,1.6,6,2.2c2,0.7,4.1,1.2,6.2,1.7l0,0.1c0,0,0,0,0,0l6.4,21.3
		c0.9,0.1,1.8,0.2,2.7,0.3c1.5,0.1,2.9,0.2,4.4,0.2c1,0,2,0,2.9,0c0.5,0,1,0,1.5,0c1.5,0,2.9-0.1,4.4-0.2c0.5,0,0.9-0.1,1.4-0.1
		L103,155c4.6-1,9.2-2.4,13.5-4.2l18,13.5c0.6-0.3,1.2-0.7,1.8-1c1.2-0.7,2.5-1.5,3.7-2.3c1.2-0.8,2.4-1.6,3.6-2.5
		c1.2-0.9,2.3-1.8,3.4-2.7c0.4-0.4,0.9-0.8,1.3-1.1l0,0l-7.5-20.7c0,0,0,0,0-0.1l-0.1-0.2c3.2-3.4,6-7.2,8.5-11.4l22.6,0.6
		c0.4-1,0.9-2,1.3-3.1c0.6-1.4,1.1-2.8,1.5-4.2c0.5-1.4,0.9-2.8,1.3-4.3c0.4-1.3,0.7-2.5,1-3.8L158.5,95.2z M46.9,88.3
		c0-23,18.6-41.6,41.6-41.6c23,0,41.6,18.6,41.6,41.6c0,23-18.6,41.6-41.6,41.6C65.5,129.9,46.9,111.3,46.9,88.3z"/>
</g>
</svg>
