<?xml version="1.0" encoding="utf-8"?>
<!-- Generator: Adobe Illustrator 21.1.0, SVG Export Plug-In . SVG Version: 6.00 Build 0)  -->
<svg version="1.1" id="Layer_1" xmlns="http://www.w3.org/2000/svg" xmlns:xlink="http://www.w3.org/1999/xlink" x="0px" y="0px"
	 viewBox="0 0 82 82" style="enable-background:new 0 0 82 82;" xml:space="preserve">
<style type="text/css">
	.st0{fill:#3F3F3F;stroke:#000000;stroke-width:2;stroke-linecap:round;stroke-linejoin:round;}
	.st1{fill:#3F3F3F;stroke:#000000;stroke-width:2;}
</style>
<path class="st0" d="M41,1c-2.7,0-5.4,0.3-8,0.8V8c-3.5,0.8-6.7,2.2-9.7,4l-4.4-4.4c-2.2,1.5-4.3,3.2-6.2,5.1
	c-1.9,1.9-3.6,3.9-5.1,6.2l4.4,4.4c-1.8,3-3.2,6.2-4,9.7H1.8C1.3,35.6,1,38.3,1,41s0.3,5.4,0.8,8H8c0.8,3.5,2.2,6.7,4,9.7l-4.4,4.4
	c1.5,2.2,3.2,4.3,5.1,6.2c1.9,1.9,3.9,3.6,6.2,5.1l4.4-4.4c3,1.8,6.2,3.2,9.7,4v6.2c2.6,0.5,5.3,0.8,8,0.8c2.7,0,5.4-0.3,8-0.8V74
	c3.5-0.8,6.7-2.2,9.7-4l4.4,4.4c2.2-1.5,4.3-3.2,6.2-5.1c1.9-1.9,3.6-3.9,5.1-6.2L70,58.7c1.8-3,3.2-6.2,4-9.7h6.2
	c0.5-2.6,0.8-5.3,0.8-8s-0.3-5.4-0.8-8H74c-0.8-3.5-2.2-6.7-4-9.7l4.4-4.4c-1.5-2.2-3.2-4.3-5.1-6.2c-1.9-1.9-3.9-3.6-6.2-5.1
	L58.7,12c-3-1.8-6.2-3.2-9.7-4V1.8C46.4,1.3,43.7,1,41,1z M41,21c11,0,20,9,20,20s-9,20-20,20s-20-9-20-20S30,21,41,21z"/>
<circle class="st1" cx="41" cy="41" r="9.2"/>
</svg>
