<?xml version="1.0" encoding="utf-8"?>
<!-- Generator: Adobe Illustrator 21.1.0, SVG Export Plug-In . SVG Version: 6.00 Build 0)  -->
<svg version="1.1" id="Layer_1" xmlns="http://www.w3.org/2000/svg" xmlns:xlink="http://www.w3.org/1999/xlink" x="0px" y="0px"
	 viewBox="0 0 148.6 158.3" style="enable-background:new 0 0 148.6 158.3;" xml:space="preserve">
<style type="text/css">
	.st0{display:none;}
	.st1{display:inline;}
	.st2{opacity:0.75;fill:#FFFFFF;stroke:#000000;stroke-width:9;stroke-miterlimit:10;}
	.st3{fill:#FFFFFF;}
	.st4{opacity:0.75;}
	.st5{fill:#02550F;}
	.st6{fill:#011F6B;}
</style>
<g id="Layer_3" class="st0">
	<g class="st1">
		<path class="st2" d="M52.2,153.8c22.1,0,40.7-14.9,46.3-35.2H5.9C11.5,138.9,30.1,153.8,52.2,153.8z"/>
		<path class="st3" d="M148.6,48c0-4.2-0.5-8.3-1.5-12.1v24.3C148,56.3,148.6,52.2,148.6,48z"/>
		<path class="st3" d="M99.2,96c0.5,0,0.9,0,1.4,0c22.3,0,41.1-15.2,46.5-35.9V35.9C141.6,15.2,122.9,0,100.6,0
			c-26.5,0-48,21.5-48,48c0,3.3,0.3,6.6,1,9.8c-0.5,0-0.9,0-1.4,0c-26.5,0-48,21.5-48,48c0,4.4,0.6,8.7,1.7,12.8h92.5
			c1.1-4.1,1.7-8.4,1.7-12.8C100.2,102.5,99.9,99.2,99.2,96z"/>
	</g>
</g>
<g id="Layer_4">
</g>
<g id="Layer_5">
	<g class="st4">
		<path d="M52.2,159c24.9,0,45.8-17.2,51.4-40.4H0.7C6.4,141.8,27.3,159,52.2,159z"/>
	</g>
</g>
<path class="st3" d="M100.6,0c-26.5,0-48,21.5-48,48c0,3.3,0.3,6.6,1,9.8c-0.5,0-0.9,0-1.4,0c-26.5,0-48,21.5-48,48s21.5,48,48,48
	s48-21.5,48-48c0-3.3-0.3-6.6-1-9.8c0.5,0,0.9,0,1.4,0c26.5,0,48-21.5,48-48S127.1,0,100.6,0z"/>
<circle class="st5" cx="100.6" cy="48" r="43.7"/>
<circle class="st3" cx="100.6" cy="48" r="26.8"/>
<g>
	<path d="M91.4,39.2v-5.1h18.8v4c-1.5,1.5-3.1,3.7-4.7,6.6s-2.8,5.9-3.7,9.1c-0.8,3.2-1.3,6.1-1.2,8.6h-5.3c0.1-4,0.9-8,2.5-12.1
		c1.5-4.1,3.6-7.8,6.2-11H91.4V39.2z"/>
</g>
<circle class="st6" cx="52.2" cy="105.7" r="43.7"/>
<circle class="st3" cx="52.2" cy="105.7" r="26.8"/>
<g>
	<path d="M50.8,113.5v5.1H31.6c0.2-1.9,0.8-3.8,1.9-5.5c1-1.7,3.1-4,6.2-6.9c2.5-2.3,4-3.9,4.6-4.7c0.8-1.1,1.1-2.3,1.1-3.4
		c0-1.2-0.3-2.2-1-2.8c-0.7-0.7-1.6-1-2.7-1c-1.1,0-2.1,0.3-2.7,1c-0.7,0.7-1.1,1.8-1.2,3.4l-5.6-0.3c0.3-3,1.3-5.2,3.1-6.5
		s3.9-2,6.4-2c2.8,0,5,0.8,6.7,2.3c1.6,1.5,2.4,3.4,2.4,5.7c0,1.3-0.2,2.5-0.7,3.7s-1.2,2.4-2.2,3.7c-0.7,0.8-1.9,2.1-3.6,3.7
		c-1.7,1.6-2.8,2.6-3.3,3.2c-0.5,0.5-0.8,1-1.1,1.5h10.9V113.5z"/>
	<path d="M65.3,118.6v-5.8H53.6V108L66,89.8h4.6V108h3.6v4.8h-3.6v5.8H65.3z M65.3,108.1v-9.8l-6.6,9.8H65.3z"/>
</g>
</svg>
