<?xml version="1.0" encoding="utf-8"?>
<!-- Generator: Adobe Illustrator 21.1.0, SVG Export Plug-In . SVG Version: 6.00 Build 0)  -->
<svg version="1.1" id="Layer_1" xmlns="http://www.w3.org/2000/svg" xmlns:xlink="http://www.w3.org/1999/xlink" x="0px" y="0px"
	 viewBox="0 0 145 155" style="enable-background:new 0 0 145 155;" xml:space="preserve">
<style type="text/css">
	.st0{fill:#FFFFFF;}
	.st1{fill:#02550F;}
	.st2{fill:#011F6B;}
</style>
<path class="st0" d="M96.8,0.6c-26.5,0-48,21.5-48,48c0,3.3,0.3,6.6,1,9.8c-0.5,0-0.9,0-1.4,0c-26.5,0-48,21.5-48,48s21.5,48,48,48
	s48-21.5,48-48c0-3.3-0.3-6.6-1-9.8c0.5,0,0.9,0,1.4,0c26.5,0,48-21.5,48-48S123.3,0.6,96.8,0.6z"/>
<circle class="st1" cx="96.8" cy="48.6" r="43.7"/>
<circle class="st0" cx="96.8" cy="48.6" r="26.8"/>
<g>
	<path d="M87.6,39.8v-5.1h18.8v4c-1.5,1.5-3.1,3.7-4.7,6.6s-2.8,5.9-3.7,9.1c-0.8,3.2-1.3,6.1-1.2,8.6h-5.3c0.1-4,0.9-8,2.5-12.1
		c1.5-4.1,3.6-7.8,6.2-11H87.6V39.8z"/>
</g>
<circle class="st2" cx="48.4" cy="106.3" r="43.7"/>
<circle class="st0" cx="48.4" cy="106.3" r="26.8"/>
<g>
	<path d="M47,114.1v5.1H27.8c0.2-1.9,0.8-3.8,1.9-5.5c1-1.7,3.1-4,6.2-6.9c2.5-2.3,4-3.9,4.6-4.7c0.8-1.1,1.1-2.3,1.1-3.4
		c0-1.2-0.3-2.2-1-2.8c-0.7-0.7-1.6-1-2.7-1c-1.1,0-2.1,0.3-2.7,1c-0.7,0.7-1.1,1.8-1.2,3.4L28.4,99c0.3-3,1.3-5.2,3.1-6.5
		c1.8-1.3,3.9-2,6.4-2c2.8,0,5,0.8,6.7,2.3c1.6,1.5,2.4,3.4,2.4,5.7c0,1.3-0.2,2.5-0.7,3.7s-1.2,2.4-2.2,3.7
		c-0.7,0.8-1.9,2.1-3.6,3.7c-1.7,1.6-2.8,2.6-3.3,3.2c-0.5,0.5-0.8,1-1.1,1.5H47V114.1z"/>
	<path d="M61.5,119.2v-5.8H49.8v-4.8l12.4-18.2h4.6v18.2h3.6v4.8h-3.6v5.8H61.5z M61.5,108.7v-9.8l-6.6,9.8H61.5z"/>
</g>
</svg>
